<svg width="72" height="57" viewBox="0 0 72 57" fill="none" xmlns="http://www.w3.org/2000/svg">
<path d="M69.3614 5.7456H56.6935V1.31976C56.6935 0.972018 56.4085 0.6875 56.0601 0.6875H51.6264C51.278 0.6875 50.993 0.972018 50.993 1.31976V5.7456H39.2753V1.31976C39.2753 0.972018 38.9902 0.6875 38.6419 0.6875H34.2081C33.8598 0.6875 33.5747 0.972018 33.5747 1.31976V5.7456H21.857V1.31976C21.857 0.972018 21.572 0.6875 21.2236 0.6875H16.7899C16.4415 0.6875 16.1565 0.972018 16.1565 1.31976V5.7456H3.48864C2.08727 5.7456 0.955078 6.87577 0.955078 8.27465V53.7975C0.955078 55.1964 2.08727 56.3266 3.48864 56.3266H69.3614C70.7627 56.3266 71.8949 55.1964 71.8949 53.7975V8.27465C71.8949 6.87577 70.7627 5.7456 69.3614 5.7456ZM66.1944 50.6362H6.6556V11.436H16.1565V15.8618C16.1565 16.2095 16.4415 16.4941 16.7899 16.4941H21.2236C21.572 16.4941 21.857 16.2095 21.857 15.8618V11.436H33.5747V15.8618C33.5747 16.2095 33.8598 16.4941 34.2081 16.4941H38.6419C38.9902 16.4941 39.2753 16.2095 39.2753 15.8618V11.436H50.993V15.8618C50.993 16.2095 51.278 16.4941 51.6264 16.4941H56.0601C56.4085 16.4941 56.6935 16.2095 56.6935 15.8618V11.436H66.1944V50.6362ZM28.8243 27.2425H14.2563C13.9079 27.2425 13.6229 27.527 13.6229 27.8748V31.6684C13.6229 32.0161 13.9079 32.3006 14.2563 32.3006H28.8243C29.1727 32.3006 29.4577 32.0161 29.4577 31.6684V27.8748C29.4577 27.527 29.1727 27.2425 28.8243 27.2425ZM28.8243 37.991H14.2563C13.9079 37.991 13.6229 38.2755 13.6229 38.6232V42.4168C13.6229 42.7646 13.9079 43.0491 14.2563 43.0491H28.8243C29.1727 43.0491 29.4577 42.7646 29.4577 42.4168V38.6232C29.4577 38.2755 29.1727 37.991 28.8243 37.991ZM53.2257 23.9706L45.0233 35.3276L40.8429 29.5503C40.6054 29.2183 40.2254 29.0287 39.8216 29.0287H35.4749C34.9603 29.0287 34.6594 29.6135 34.9603 30.0324L43.994 42.5354C44.1107 42.6969 44.2641 42.8285 44.4417 42.9193C44.6192 43.01 44.8159 43.0574 45.0154 43.0574C45.2149 43.0574 45.4115 43.01 45.5891 42.9193C45.7667 42.8285 45.9201 42.6969 46.0367 42.5354L59.1004 24.4606C59.4013 24.0417 59.1004 23.4569 58.5858 23.4569H54.2391C53.8433 23.4489 53.4632 23.6465 53.2257 23.9706Z" fill="white" fill-opacity="0.5"/>
</svg>
