<svg width="60" height="51" viewBox="0 0 60 51" fill="none" xmlns="http://www.w3.org/2000/svg">
<path d="M0.687988 12.2584C0.687988 6.7355 0.687988 3.97698 2.40402 2.26095C4.12004 0.544922 6.87857 0.544922 12.4015 0.544922H47.542C53.0649 0.544922 55.8234 0.544922 57.5394 2.26095C59.2555 3.97698 59.2555 6.7355 59.2555 12.2584C59.2555 13.6377 59.2555 14.3288 58.8279 14.7592C58.3974 15.1868 57.7034 15.1868 56.3271 15.1868H3.61636C2.2371 15.1868 1.546 15.1868 1.11553 14.7592C0.687988 14.3288 0.687988 13.6348 0.687988 12.2584ZM0.687988 38.6138C0.687988 44.1367 0.687988 46.8952 2.40402 48.6112C4.12004 50.3273 6.87857 50.3273 12.4015 50.3273H47.542C53.0649 50.3273 55.8234 50.3273 57.5394 48.6112C59.2555 46.8952 59.2555 44.1367 59.2555 38.6138V23.9719C59.2555 22.5926 59.2555 21.9016 58.8279 21.4711C58.3974 21.0435 57.7034 21.0435 56.3271 21.0435H3.61636C2.2371 21.0435 1.546 21.0435 1.11553 21.4711C0.687988 21.9016 0.687988 22.5956 0.687988 23.9719V38.6138Z" fill="white" fill-opacity="0.5"/>
</svg>
