<svg width="56" height="56" viewBox="0 0 56 56" fill="none" xmlns="http://www.w3.org/2000/svg">
<path d="M40.3493 27.8195C40.3493 26.1195 38.9583 24.7285 37.2583 24.7285H27.9851C26.285 24.7285 24.894 26.1195 24.894 27.8195C24.894 29.5196 26.285 30.9106 27.9851 30.9106H37.2583C38.9583 30.9106 40.3493 29.5196 40.3493 27.8195ZM27.9851 6.18212C39.9135 6.18212 49.6225 15.8911 49.6225 27.8195C49.6225 39.748 39.9135 49.457 27.9851 49.457C16.0567 49.457 6.34765 39.748 6.34765 27.8195C6.34765 15.8911 16.0567 6.18212 27.9851 6.18212ZM27.9851 0C12.6194 0 0.165527 12.4539 0.165527 27.8195C0.165527 43.1852 12.6194 55.6391 27.9851 55.6391C43.3507 55.6391 55.8046 43.1852 55.8046 27.8195C55.8046 12.4539 43.3507 0 27.9851 0ZM31.0761 18.5464C31.0761 16.8463 29.6852 15.4553 27.9851 15.4553C26.285 15.4553 24.894 16.8463 24.894 18.5464V27.8195C24.894 29.5196 26.285 30.9106 27.9851 30.9106C29.6852 30.9106 31.0761 29.5196 31.0761 27.8195V18.5464ZM27.9851 12.3642C36.5071 12.3642 43.4404 19.2975 43.4404 27.8195C43.4404 36.3416 36.5071 43.2749 27.9851 43.2749C19.463 43.2749 12.5298 36.3416 12.5298 27.8195C12.5298 19.2975 19.463 12.3642 27.9851 12.3642ZM27.9851 9.27318C23.0663 9.27318 18.3489 11.2272 14.8708 14.7053C11.3927 18.1834 9.43871 22.9007 9.43871 27.8195C9.43871 32.7384 11.3927 37.4557 14.8708 40.9338C18.3489 44.4119 23.0663 46.3659 27.9851 46.3659C32.9039 46.3659 37.6212 44.4119 41.0993 40.9338C44.5775 37.4557 46.5314 32.7384 46.5314 27.8195C46.5314 22.9007 44.5775 18.1834 41.0993 14.7053C37.6212 11.2272 32.9039 9.27318 27.9851 9.27318Z" fill="white" fill-opacity="0.5"/>
</svg>
